<svg width="77" height="92" viewBox="0 0 77 77" fill="none" xmlns="http://www.w3.org/2000/svg">
<g filter="url(#filter0_ddddd_4155_545)">
<path d="M66.4758 19.6432H55.4263C55.5492 19.5392 55.6752 19.4384 55.7949 19.3282C56.7515 18.4783 57.5225 17.4402 58.0595 16.2787C58.5966 15.1173 58.8883 13.8575 58.9163 12.5782C58.9577 11.1787 58.7126 9.78546 58.196 8.48408C57.6795 7.18271 56.9024 6.00064 55.9125 5.01044C54.9226 4.02024 53.7408 3.24282 52.4396 2.72589C51.1383 2.20896 49.7452 1.96344 48.3456 2.0044C47.0658 2.03196 45.8054 2.32342 44.6434 2.86053C43.4814 3.39764 42.4428 4.16883 41.5925 5.12583C40.416 6.48935 39.4596 8.02817 38.7577 9.68671C38.0559 8.02817 37.0994 6.48935 35.9229 5.12583C35.0727 4.16883 34.034 3.39764 32.872 2.86053C31.71 2.32342 30.4496 2.03196 29.1698 2.0044C27.7702 1.96344 26.3771 2.20896 25.0759 2.72589C23.7746 3.24282 22.5928 4.02024 21.6029 5.01044C20.613 6.00064 19.8359 7.18271 19.3194 8.48408C18.8028 9.78546 18.5577 11.1787 18.5991 12.5782C18.6271 13.8575 18.9188 15.1173 19.4559 16.2787C19.993 17.4402 20.7639 18.4783 21.7206 19.3282C21.8402 19.4321 21.9662 19.5329 22.0891 19.6432H11.0396C9.70305 19.6432 8.4212 20.1741 7.47608 21.1192C6.53096 22.0644 6 23.3462 6 24.6828V34.7621C6 36.0987 6.53096 37.3806 7.47608 38.3257C8.4212 39.2708 9.70305 39.8018 11.0396 39.8018V59.9604C11.0396 61.2969 11.5706 62.5788 12.5157 63.5239C13.4608 64.469 14.7427 65 16.0793 65H34.978C35.3121 65 35.6326 64.8673 35.8689 64.631C36.1051 64.3947 36.2379 64.0742 36.2379 63.7401V34.7621H11.0396V24.6828H36.2379V34.7621H41.2775V24.6828H66.4758V34.7621H41.2775V63.7401C41.2775 64.0742 41.4103 64.3947 41.6466 64.631C41.8828 64.8673 42.2033 65 42.5374 65H61.4361C62.7727 65 64.0546 64.469 64.9997 63.5239C65.9448 62.5788 66.4758 61.2969 66.4758 59.9604V39.8018C67.8124 39.8018 69.0942 39.2708 70.0393 38.3257C70.9845 37.3806 71.5154 36.0987 71.5154 34.7621V24.6828C71.5154 23.3462 70.9845 22.0644 70.0393 21.1192C69.0942 20.1741 67.8124 19.6432 66.4758 19.6432ZM25.0593 15.5485C24.6187 15.1495 24.2654 14.6637 24.0215 14.1217C23.7775 13.5796 23.6483 12.993 23.6419 12.3987C23.626 11.7023 23.7492 11.0097 24.0044 10.3615C24.2595 9.71332 24.6415 9.12258 25.1278 8.62389C25.6142 8.12521 26.1952 7.72861 26.8368 7.45733C27.4784 7.18604 28.1677 7.04554 28.8642 7.04405H29.0186C29.6129 7.05046 30.1996 7.17968 30.7416 7.42359C31.2836 7.66751 31.7694 8.02086 32.1684 8.46145C34.811 11.4474 35.7434 16.3989 36.0709 19.4605C32.9968 19.1361 28.0485 18.2037 25.0593 15.5485ZM52.4624 15.5485C49.4733 18.1943 44.5124 19.1266 41.4382 19.4542C41.813 16.1438 42.8524 11.2962 45.3722 8.4646C45.7712 8.02401 46.257 7.67066 46.799 7.42674C47.3411 7.18283 47.9277 7.05361 48.522 7.04719H48.6764C49.373 7.05155 50.0618 7.19491 50.7023 7.46886C51.3428 7.74282 51.9222 8.14186 52.4065 8.64261C52.8908 9.14336 53.2703 9.73573 53.5228 10.385C53.7752 11.0343 53.8955 11.7275 53.8767 12.4239C53.8664 13.0142 53.735 13.5961 53.4907 14.1336C53.2463 14.6711 52.8942 15.1526 52.4561 15.5485H52.4624Z" fill="#D658B3"/>
<path d="M54.2959 18.3072L50.6489 21.3932H55.4263H66.4758C67.3482 21.3932 68.185 21.7398 68.8019 22.3567C69.4188 22.9736 69.7654 23.8103 69.7654 24.6828V34.7621C69.7654 35.6346 69.4188 36.4713 68.8019 37.0882C68.185 37.7052 67.3482 38.0518 66.4758 38.0518H64.7258V39.8018V59.9604C64.7258 60.8328 64.3792 61.6696 63.7623 62.2865C63.1453 62.9034 62.3086 63.25 61.4361 63.25H43.0275V36.5121H66.4758H68.2258V34.7621V24.6828V22.9328H66.4758H41.2775H39.5275V24.6828V33.0121H37.9879V24.6828V22.9328H36.2379H11.0396H9.28965V24.6828V34.7621V36.5121H11.0396H34.4879V63.25H16.0793C15.2068 63.25 14.3701 62.9034 13.7532 62.2865C13.1362 61.6696 12.7896 60.8328 12.7896 59.9604V39.8018V38.0518H11.0396C10.1672 38.0518 9.33044 37.7052 8.71352 37.0882C8.09659 36.4713 7.75 35.6346 7.75 34.7621V24.6828C7.75 23.8103 8.09659 22.9736 8.71352 22.3567C9.33044 21.7398 10.1672 21.3932 11.0396 21.3932H22.0891H26.6592L23.2579 18.3407C23.1733 18.2648 23.0002 18.1186 22.9155 18.0471C22.8959 18.0306 22.8811 18.018 22.8731 18.0113C22.101 17.3229 21.4785 16.4832 21.0443 15.5442C20.6082 14.6013 20.3714 13.5785 20.3487 12.5399L20.3488 12.5399L20.3484 12.5265C20.314 11.3653 20.5174 10.2094 20.9459 9.12969C21.3745 8.04997 22.0192 7.06923 22.8405 6.24769C23.6618 5.42615 24.6424 4.78113 25.722 4.35225C26.8016 3.92337 27.9574 3.71967 29.1186 3.75365L29.1186 3.7537L29.1321 3.75399C30.1711 3.77637 31.1944 4.01299 32.1378 4.44905C33.0774 4.88337 33.9177 5.50623 34.6064 6.2789C35.6601 7.50209 36.5169 8.88188 37.1461 10.3687L38.7577 14.1772L40.3693 10.3687C40.9985 8.88188 41.8553 7.50209 42.909 6.2789C43.5977 5.50623 44.438 4.88337 45.3776 4.44905C46.321 4.01299 47.3443 3.77637 48.3833 3.75404L48.3968 3.75365C49.558 3.71967 50.7139 3.92337 51.7935 4.35225C52.873 4.78113 53.8536 5.42615 54.6749 6.24769C55.4962 7.06924 56.1409 8.04997 56.5695 9.12969C56.998 10.2094 57.2014 11.3653 57.1671 12.5265L57.167 12.5265L57.1667 12.5399C57.1574 12.9635 57.1126 13.3845 57.0331 13.7985H55.4515C55.5589 13.3623 55.6177 12.9144 55.6262 12.463C55.6502 11.5366 55.4897 10.6147 55.1538 9.75088C54.817 8.88453 54.3106 8.09412 53.6644 7.42598C53.0182 6.75783 52.2451 6.22539 51.3905 5.85985C50.5358 5.49432 49.6168 5.30304 48.6873 5.29723L48.6873 5.29719H48.6764H48.522H48.5126L48.5032 5.2973C47.6676 5.30631 46.8429 5.48797 46.0809 5.83088C45.3189 6.17379 44.636 6.67053 44.0751 7.28994L44.07 7.29556L44.0649 7.30124C42.5737 8.97701 41.5896 11.1591 40.9312 13.2555C40.2667 15.3717 39.8952 17.5271 39.6993 19.2573L39.4538 21.4255L41.6236 21.1943C43.2267 21.0235 45.3515 20.6926 47.4891 20.0456C49.6086 19.4042 51.8633 18.4158 53.6223 16.8589L57.0233 13.8485C56.9072 14.432 56.7222 15.0013 56.4712 15.5442C56.0351 16.4871 55.4092 17.3299 54.6326 18.0199L54.6208 18.0303L54.6093 18.041C54.556 18.09 54.5135 18.1254 54.4456 18.1819C54.4064 18.2144 54.3589 18.254 54.2959 18.3072ZM48.3456 2.00464L48.3456 2.0044L48.3456 2.00464ZM23.8847 16.8456L23.8909 16.8512L23.8971 16.8568C25.6557 18.4189 27.9073 19.4103 30.025 20.0531C32.1604 20.7013 34.2831 21.0315 35.8873 21.2008L38.0415 21.4282L37.811 19.2743C37.6402 17.6775 37.3092 15.5581 36.6626 13.425C36.0215 11.3099 35.0339 9.0587 33.4789 7.30164L33.4722 7.29418L33.4655 7.28679C32.9047 6.66739 32.2218 6.17064 31.4597 5.82773C30.6977 5.48482 29.873 5.30316 29.0375 5.29415L29.028 5.29405H29.0186L28.8643 5.29404L28.8605 5.29405C27.931 5.29604 27.0113 5.48352 26.1553 5.84549C25.2992 6.20745 24.524 6.73664 23.875 7.40203C23.226 8.06742 22.7164 8.85564 22.376 9.7205C22.0368 10.5821 21.8724 11.5025 21.8921 12.4282C21.9026 13.2601 22.0841 14.081 22.4256 14.8398C22.7685 15.6018 23.2653 16.2847 23.8847 16.8456Z" stroke="white" stroke-width="3.5"/>
</g>
<defs>
<filter id="filter0_ddddd_4155_545" x="0.75" y="0.25" width="76.0154" height="91" filterUnits="userSpaceOnUse" color-interpolation-filters="sRGB">
<feFlood flood-opacity="0" result="BackgroundImageFix"/>
<feColorMatrix in="SourceAlpha" type="matrix" values="0 0 0 0 0 0 0 0 0 0 0 0 0 0 0 0 0 0 127 0" result="hardAlpha"/>
<feOffset/>
<feGaussianBlur stdDeviation="0.875"/>
<feColorMatrix type="matrix" values="0 0 0 0 0 0 0 0 0 0 0 0 0 0 0 0 0 0 0.29 0"/>
<feBlend mode="normal" in2="BackgroundImageFix" result="effect1_dropShadow_4155_545"/>
<feColorMatrix in="SourceAlpha" type="matrix" values="0 0 0 0 0 0 0 0 0 0 0 0 0 0 0 0 0 0 127 0" result="hardAlpha"/>
<feOffset dy="3.5"/>
<feGaussianBlur stdDeviation="1.75"/>
<feColorMatrix type="matrix" values="0 0 0 0 0 0 0 0 0 0 0 0 0 0 0 0 0 0 0.26 0"/>
<feBlend mode="normal" in2="effect1_dropShadow_4155_545" result="effect2_dropShadow_4155_545"/>
<feColorMatrix in="SourceAlpha" type="matrix" values="0 0 0 0 0 0 0 0 0 0 0 0 0 0 0 0 0 0 127 0" result="hardAlpha"/>
<feOffset dy="7"/>
<feGaussianBlur stdDeviation="2.625"/>
<feColorMatrix type="matrix" values="0 0 0 0 0 0 0 0 0 0 0 0 0 0 0 0 0 0 0.15 0"/>
<feBlend mode="normal" in2="effect2_dropShadow_4155_545" result="effect3_dropShadow_4155_545"/>
<feColorMatrix in="SourceAlpha" type="matrix" values="0 0 0 0 0 0 0 0 0 0 0 0 0 0 0 0 0 0 127 0" result="hardAlpha"/>
<feOffset dy="14"/>
<feGaussianBlur stdDeviation="2.625"/>
<feColorMatrix type="matrix" values="0 0 0 0 0 0 0 0 0 0 0 0 0 0 0 0 0 0 0.04 0"/>
<feBlend mode="normal" in2="effect3_dropShadow_4155_545" result="effect4_dropShadow_4155_545"/>
<feColorMatrix in="SourceAlpha" type="matrix" values="0 0 0 0 0 0 0 0 0 0 0 0 0 0 0 0 0 0 127 0" result="hardAlpha"/>
<feOffset dy="21"/>
<feGaussianBlur stdDeviation="2.625"/>
<feColorMatrix type="matrix" values="0 0 0 0 0 0 0 0 0 0 0 0 0 0 0 0 0 0 0.01 0"/>
<feBlend mode="normal" in2="effect4_dropShadow_4155_545" result="effect5_dropShadow_4155_545"/>
<feBlend mode="normal" in="SourceGraphic" in2="effect5_dropShadow_4155_545" result="shape"/>
</filter>
</defs>
</svg>
